<svg width="40" height="37" viewBox="0 0 40 37" fill="none" xmlns="http://www.w3.org/2000/svg">
<path fill-rule="evenodd" clip-rule="evenodd" d="M19.8366 2.39172C10.0353 2.39172 2.11182 9.77485 2.11182 18.9088C2.11182 26.21 7.18864 32.3904 14.2315 34.5778C15.1121 34.7422 15.4346 34.2224 15.4346 33.7851C15.4346 33.4022 15.4056 32.0897 15.4056 30.7221C10.475 31.7067 9.44823 28.7532 9.44823 28.7532C8.65585 26.8389 7.48179 26.3469 7.48179 26.3469C5.86801 25.3351 7.59935 25.3351 7.59935 25.3351C9.38946 25.4445 10.3288 27.0305 10.3288 27.0305C11.9132 29.5462 14.4663 28.8354 15.4934 28.3978C15.64 27.3312 16.1098 26.5929 16.6087 26.1828C12.6762 25.7999 8.53867 24.378 8.53867 18.0335C8.53867 16.2287 9.24252 14.7521 10.3578 13.6037C10.1818 13.1936 9.56542 11.4978 10.5341 9.22816C10.5341 9.22816 12.0307 8.79054 15.4052 10.9236C16.85 10.562 18.3399 10.3781 19.8366 10.3766C21.3332 10.3766 22.8588 10.5682 24.2676 10.9236C27.6425 8.79054 29.1391 9.22816 29.1391 9.22816C30.1078 11.4978 29.491 13.1936 29.3151 13.6037C30.4598 14.7521 31.1346 16.2287 31.1346 18.0335C31.1346 24.378 26.9971 25.7724 23.0352 26.1828C23.681 26.7023 24.2383 27.6866 24.2383 29.2455C24.2383 31.4604 24.2092 33.2381 24.2092 33.7848C24.2092 34.2224 24.5321 34.7422 25.4123 34.5781C32.4552 32.39 37.532 26.21 37.532 18.9088C37.5611 9.77485 29.6086 2.39172 19.8366 2.39172Z" fill="#24292F"/>
</svg>
