<svg width="42" height="43" viewBox="0 0 42 43" fill="none" xmlns="http://www.w3.org/2000/svg">
<path d="M38.1596 17.9911H36.75V17.9167H21V25.0834H30.8901C29.4472 29.2553 25.5701 32.25 21 32.25C15.2014 32.25 10.5 27.4367 10.5 21.5C10.5 15.5634 15.2014 10.75 21 10.75C23.6766 10.75 26.1117 11.7838 27.9659 13.4725L32.9157 8.40475C29.7902 5.42252 25.6095 3.58337 21 3.58337C11.3356 3.58337 3.5 11.6056 3.5 21.5C3.5 31.3945 11.3356 39.4167 21 39.4167C30.6644 39.4167 38.5 31.3945 38.5 21.5C38.5 20.2987 38.3792 19.1261 38.1596 17.9911Z" fill="#FFC107"/>
<path d="M5.51758 13.1607L11.2672 17.4777C12.823 13.5343 16.5907 10.75 20.9998 10.75C23.6765 10.75 26.1116 11.7838 27.9657 13.4725L32.9156 8.40475C29.7901 5.42252 25.6093 3.58337 20.9998 3.58337C14.2781 3.58337 8.44883 7.4686 5.51758 13.1607Z" fill="#FF3D00"/>
<path d="M20.9998 39.4167C25.52 39.4167 29.6273 37.6456 32.7327 34.7655L27.3164 30.0731C25.5004 31.4871 23.2813 32.2519 20.9998 32.25C16.448 32.25 12.5832 29.2785 11.1272 25.1317L5.42041 29.6333C8.31666 35.4356 14.1984 39.4167 20.9998 39.4167Z" fill="#4CAF50"/>
<path d="M38.1596 17.991H36.75V17.9166H21V25.0833H30.8901C30.1999 27.0688 28.9567 28.8038 27.314 30.074L27.3166 30.0722L32.7329 34.7646C32.3496 35.1211 38.5 30.4583 38.5 21.5C38.5 20.2986 38.3792 19.126 38.1596 17.991Z" fill="#1976D2"/>
</svg>
