<svg width="22" height="25" viewBox="0 0 22 25" fill="none" xmlns="http://www.w3.org/2000/svg">
<path d="M11.6875 19.7916C11.6875 19.5844 11.6151 19.3857 11.4861 19.2392C11.3572 19.0926 11.1823 19.0103 11 19.0103H5.5C5.43922 19.0103 5.38093 18.9829 5.33795 18.9341C5.29498 18.8852 5.27083 18.819 5.27083 18.7499V6.24992C5.27083 6.18085 5.29498 6.11461 5.33795 6.06578C5.38093 6.01694 5.43922 5.9895 5.5 5.9895H11C11.1823 5.9895 11.3572 5.90719 11.4861 5.76068C11.6151 5.61417 11.6875 5.41545 11.6875 5.20825C11.6875 5.00105 11.6151 4.80234 11.4861 4.65582C11.3572 4.50931 11.1823 4.427 11 4.427H5.5C4.6145 4.427 3.89583 5.24367 3.89583 6.24992V18.7499C3.89583 19.2334 4.06484 19.6971 4.36568 20.0389C4.66652 20.3808 5.07455 20.5728 5.5 20.5728H11C11.1823 20.5728 11.3572 20.4905 11.4861 20.344C11.6151 20.1975 11.6875 19.9988 11.6875 19.7916Z" fill="#E1E1E2"/>
<path d="M7.6888 13.6616C7.6888 13.9378 7.78537 14.2028 7.95728 14.3981C8.12919 14.5935 8.36235 14.7032 8.60546 14.7032H13.0568C13.0779 15.0741 13.1045 15.4428 13.1356 15.8136L13.1631 16.1313C13.1734 16.2511 13.2089 16.3663 13.2666 16.4671C13.3244 16.5679 13.4027 16.6514 13.4949 16.7105C13.5871 16.7696 13.6905 16.8025 13.7963 16.8065C13.9022 16.8105 14.0072 16.7854 14.1027 16.7334C15.7784 15.8208 17.2954 14.572 18.5806 13.047L18.6081 13.0147C18.7261 12.8748 18.792 12.6886 18.792 12.4949C18.792 12.3012 18.7261 12.1149 18.6081 11.9751L18.5806 11.9428C17.2954 10.4178 15.7784 9.16894 14.1027 8.25635C14.0072 8.20434 13.9022 8.17928 13.7963 8.18327C13.6905 8.18727 13.5871 8.22021 13.4949 8.2793C13.4027 8.33839 13.3244 8.42189 13.2666 8.52271C13.2089 8.62353 13.1734 8.73869 13.1631 8.85843L13.1356 9.17614C13.1045 9.54593 13.0779 9.91572 13.0568 10.2866H8.60546C8.36235 10.2866 8.12919 10.3963 7.95728 10.5917C7.78537 10.787 7.6888 11.052 7.6888 11.3282V13.6616Z" fill="#E1E1E2"/>
</svg>
