<svg width="19" height="20" viewBox="0 0 19 20" fill="none" xmlns="http://www.w3.org/2000/svg">
<g clip-path="url(#clip0_111_654)">
<path d="M3.8002 7.99989C3.79968 6.75324 4.16807 5.53739 4.85418 4.52126C5.54029 3.50513 6.51004 2.7392 7.6287 2.32989C7.58538 2.0442 7.60145 1.75201 7.67582 1.4735C7.75018 1.19498 7.88106 0.936768 8.05943 0.716665C8.2378 0.496562 8.45941 0.319813 8.70898 0.198613C8.95854 0.0774136 9.2301 0.0146484 9.50495 0.0146484C9.77979 0.0146484 10.0514 0.0774136 10.3009 0.198613C10.5505 0.319813 10.7721 0.496562 10.9505 0.716665C11.1288 0.936768 11.2597 1.19498 11.3341 1.4735C11.4084 1.75201 11.4245 2.0442 11.3812 2.32989C12.4981 2.74088 13.4658 3.50753 14.1501 4.52351C14.8344 5.5395 15.2014 6.75446 15.2002 7.99989V13.9999L18.0502 15.9999V16.9999H0.950195V15.9999L3.8002 13.9999V7.99989ZM11.4002 17.9999C11.4002 18.5303 11.2 19.039 10.8437 19.4141C10.4874 19.7892 10.0041 19.9999 9.5002 19.9999C8.99628 19.9999 8.51301 19.7892 8.15669 19.4141C7.80037 19.039 7.6002 18.5303 7.6002 17.9999H11.4002Z" fill="#E1E1E2"/>
</g>
<defs>
<clipPath id="clip0_111_654">
<rect width="19" height="20" fill="white"/>
</clipPath>
</defs>
</svg>
