<svg width="23" height="25" viewBox="0 0 23 25" fill="none" xmlns="http://www.w3.org/2000/svg">
<path fill-rule="evenodd" clip-rule="evenodd" d="M7.66667 7.29167C7.66667 6.1866 8.07053 5.12679 8.78942 4.34539C9.50831 3.56399 10.4833 3.125 11.5 3.125C12.5167 3.125 13.4917 3.56399 14.2106 4.34539C14.9295 5.12679 15.3333 6.1866 15.3333 7.29167C15.3333 8.39674 14.9295 9.45654 14.2106 10.2379C13.4917 11.0193 12.5167 11.4583 11.5 11.4583C10.4833 11.4583 9.50831 11.0193 8.78942 10.2379C8.07053 9.45654 7.66667 8.39674 7.66667 7.29167ZM7.66667 13.5417C6.39584 13.5417 5.17706 14.0904 4.27845 15.0672C3.37983 16.0439 2.875 17.3687 2.875 18.75C2.875 19.5788 3.1779 20.3737 3.71707 20.9597C4.25624 21.5458 4.9875 21.875 5.75 21.875H17.25C18.0125 21.875 18.7438 21.5458 19.2829 20.9597C19.8221 20.3737 20.125 19.5788 20.125 18.75C20.125 17.3687 19.6202 16.0439 18.7216 15.0672C17.8229 14.0904 16.6042 13.5417 15.3333 13.5417H7.66667Z" fill="#E1E1E2"/>
</svg>
