<svg width="28" height="28" viewBox="0 0 28 28" fill="none" xmlns="http://www.w3.org/2000/svg">
<path d="M5 5.24992C5 4.60559 5.52233 4.08325 6.16667 4.08325H21.8333C22.4777 4.08325 23 4.60559 23 5.24992C23 5.89425 22.4777 6.41659 21.8333 6.41659H6.16667C5.52233 6.41659 5 5.89425 5 5.24992ZM5 22.7499C5 22.1056 5.52233 21.5833 6.16667 21.5833H15.8333C16.4777 21.5833 17 22.1056 17 22.7499C17 23.3943 16.4777 23.9166 15.8333 23.9166H6.16667C5.52234 23.9166 5 23.3943 5 22.7499ZM5 16.9166C5 16.2723 5.52233 15.7499 6.16667 15.7499H21.8333C22.4777 15.7499 23 16.2723 23 16.9166C23 17.5609 22.4777 18.0833 21.8333 18.0833H6.16667C5.52233 18.0833 5 17.5609 5 16.9166ZM5 11.0833C5 10.4389 5.52233 9.91658 6.16667 9.91658H15.8333C16.4777 9.91658 17 10.4389 17 11.0833C17 11.7276 16.4777 12.2499 15.8333 12.2499H6.16667C5.52234 12.2499 5 11.7276 5 11.0833Z" fill="black"/>
</svg>
