<svg width="28" height="28" viewBox="0 0 28 28" fill="none" xmlns="http://www.w3.org/2000/svg">
<path d="M3.5 5.24992C3.5 4.60559 4.02233 4.08325 4.66667 4.08325H23.3333C23.9777 4.08325 24.5 4.60559 24.5 5.24992C24.5 5.89425 23.9777 6.41659 23.3333 6.41659H4.66667C4.02233 6.41659 3.5 5.89425 3.5 5.24992ZM8.16667 22.7499C8.16667 22.1056 8.689 21.5833 9.33333 21.5833H23.3333C23.9777 21.5833 24.5 22.1056 24.5 22.7499C24.5 23.3943 23.9777 23.9166 23.3333 23.9166H9.33333C8.689 23.9166 8.16667 23.3943 8.16667 22.7499ZM3.5 16.9166C3.5 16.2723 4.02233 15.7499 4.66667 15.7499H23.3333C23.9777 15.7499 24.5 16.2723 24.5 16.9166C24.5 17.5609 23.9777 18.0833 23.3333 18.0833H4.66667C4.02233 18.0833 3.5 17.5609 3.5 16.9166ZM8.16667 11.0833C8.16667 10.4389 8.689 9.91658 9.33333 9.91658H23.3333C23.9777 9.91658 24.5 10.4389 24.5 11.0833C24.5 11.7276 23.9777 12.2499 23.3333 12.2499H9.33333C8.689 12.2499 8.16667 11.7276 8.16667 11.0833Z" fill="black"/>
</svg>
