<svg width="28" height="28" viewBox="0 0 28 28" fill="none" xmlns="http://www.w3.org/2000/svg">
<path d="M4.66699 5.24992C4.66699 4.60559 5.18933 4.08325 5.83366 4.08325H22.167C22.8113 4.08325 23.3337 4.60559 23.3337 5.24992C23.3337 5.89425 22.8113 6.41659 22.167 6.41659H5.83366C5.18932 6.41659 4.66699 5.89425 4.66699 5.24992ZM8.16699 22.7499C8.16699 22.1056 8.68933 21.5833 9.33366 21.5833H18.667C19.3113 21.5833 19.8337 22.1056 19.8337 22.7499C19.8337 23.3943 19.3113 23.9166 18.667 23.9166H9.33366C8.68933 23.9166 8.16699 23.3943 8.16699 22.7499ZM8.16699 11.0833C8.16699 10.4389 8.68933 9.91658 9.33366 9.91658H18.667C19.3113 9.91658 19.8337 10.4389 19.8337 11.0833C19.8337 11.7276 19.3113 12.2499 18.667 12.2499H9.33366C8.68933 12.2499 8.16699 11.7276 8.16699 11.0833ZM4.66699 16.9166C4.66699 16.2723 5.18933 15.7499 5.83366 15.7499H22.167C22.8113 15.7499 23.3337 16.2723 23.3337 16.9166C23.3337 17.5609 22.8113 18.0833 22.167 18.0833H5.83366C5.18932 18.0833 4.66699 17.5609 4.66699 16.9166Z" fill="black"/>
</svg>
