<svg width="28" height="28" viewBox="0 0 28 28" fill="none" xmlns="http://www.w3.org/2000/svg">
<path d="M9.33333 12.8333H14.5833C15.3569 12.8333 16.0987 12.526 16.6457 11.9791C17.1927 11.4321 17.5 10.6902 17.5 9.91666C17.5 9.14311 17.1927 8.40124 16.6457 7.85426C16.0987 7.30728 15.3569 6.99999 14.5833 6.99999H9.33333V12.8333ZM21 18.0833C21 18.7728 20.8642 19.4555 20.6004 20.0924C20.3365 20.7294 19.9498 21.3081 19.4623 21.7956C18.9748 22.2831 18.396 22.6699 17.7591 22.9337C17.1221 23.1975 16.4394 23.3333 15.75 23.3333H7.65C7.29101 23.3333 7 23.0423 7 22.6833V5.31666C7 4.95767 7.29101 4.66666 7.65 4.66666H14.5833C15.6111 4.6667 16.6163 4.96842 17.4742 5.5344C18.3321 6.10038 19.005 6.90572 19.4095 7.85057C19.814 8.79542 19.9322 9.83821 19.7495 10.8496C19.5669 11.8611 19.0914 12.7966 18.382 13.5403C19.1784 14.0015 19.8396 14.664 20.2991 15.4614C20.7586 16.2588 21.0003 17.163 21 18.0833ZM9.33333 15.1667V21H15.75C16.5235 21 17.2654 20.6927 17.8124 20.1457C18.3594 19.5987 18.6667 18.8569 18.6667 18.0833C18.6667 17.3098 18.3594 16.5679 17.8124 16.0209C17.2654 15.4739 16.5235 15.1667 15.75 15.1667H9.33333Z" fill="black"/>
</svg>
