<svg width="28" height="29" viewBox="0 0 28 29" fill="none" xmlns="http://www.w3.org/2000/svg">
<path fill-rule="evenodd" clip-rule="evenodd" d="M7.61361 5.18547C7.95756 5.39805 8.16692 5.77356 8.16692 6.1779L8.16667 11.4279C8.16667 12.0722 7.64433 12.5946 7 12.5946C6.35567 12.5946 5.83333 12.0722 5.83333 11.4279L5.83359 8.0656L5.18867 8.38806C4.61236 8.67622 3.91158 8.44262 3.62342 7.86631C3.33527 7.29001 3.56886 6.58922 4.14517 6.30107L6.47851 5.1344C6.84016 4.95357 7.26966 4.9729 7.61361 5.18547ZM14.0003 7.9279C13.356 7.9279 12.8336 8.45023 12.8336 9.09456C12.8336 9.7389 13.356 10.2612 14.0003 10.2612H23.3336C23.9779 10.2612 24.5003 9.7389 24.5003 9.09456C24.5003 8.45023 23.9779 7.9279 23.3336 7.9279H14.0003ZM14 19.0112C13.3557 19.0112 12.8333 19.5336 12.8333 20.1779C12.8333 20.8222 13.3557 21.3446 14 21.3446H23.3333C23.9777 21.3446 24.5 20.8222 24.5 20.1779C24.5 19.5336 23.9777 19.0112 23.3333 19.0112H14Z" fill="black"/>
<path d="M5.66919 18.7697L5.66788 18.7707L5.66635 18.7718L5.66404 18.7736L5.66287 18.7745C5.15248 19.1613 4.42472 19.0643 4.03361 18.5559C3.64075 18.0452 3.73629 17.3127 4.247 16.9198L4.31493 16.8698C4.34961 16.845 4.39628 16.8128 4.45354 16.7755C4.56721 16.7016 4.72719 16.605 4.92173 16.5083C5.29255 16.3239 5.87642 16.0946 6.54619 16.0946C8.08548 16.0946 9.33333 17.3424 9.33333 18.8817C9.33333 19.7746 8.81013 20.4603 8.34167 20.9695C7.98463 21.3576 7.55355 21.6737 7.175 21.9279H8.45833C9.10267 21.9279 9.625 22.4502 9.625 23.0946C9.625 23.7389 9.10267 24.2612 8.45833 24.2612H4.66667C4.02233 24.2612 3.5 23.7389 3.5 23.0946C3.5 22.2146 3.98237 21.5792 4.43333 21.149C4.81543 20.7846 5.27422 20.4703 5.65458 20.2232L5.77827 20.1427C6.22708 19.8493 6.5452 19.6245 6.76122 19.3897C6.949 19.1856 7 19.0385 7 18.8817C7 18.6311 6.79682 18.4279 6.54619 18.4279C6.38643 18.4279 6.17637 18.4903 5.96065 18.5975C5.86192 18.6466 5.78047 18.6959 5.72603 18.7313C5.69923 18.7488 5.67923 18.7625 5.66919 18.7697Z" fill="black"/>
</svg>
