<svg width="28" height="29" viewBox="0 0 28 29" fill="none" xmlns="http://www.w3.org/2000/svg">
<path d="M9.33333 6.76123C9.33333 6.1169 9.85567 5.59456 10.5 5.59456H23.3333C23.9777 5.59456 24.5 6.1169 24.5 6.76123C24.5 7.40556 23.9777 7.9279 23.3333 7.9279H10.5C9.85567 7.9279 9.33333 7.40556 9.33333 6.76123ZM3.5 6.76123C3.5 5.79473 4.2835 5.01123 5.25 5.01123C6.2165 5.01123 7 5.79473 7 6.76123C7 7.72773 6.2165 8.51123 5.25 8.51123C4.2835 8.51123 3.5 7.72773 3.5 6.76123ZM3.5 14.9279C3.5 13.9614 4.2835 13.1779 5.25 13.1779C6.2165 13.1779 7 13.9614 7 14.9279C7 15.8944 6.2165 16.6779 5.25 16.6779C4.2835 16.6779 3.5 15.8944 3.5 14.9279ZM3.5 23.0946C3.5 22.1281 4.2835 21.3446 5.25 21.3446C6.2165 21.3446 7 22.1281 7 23.0946C7 24.0611 6.2165 24.8446 5.25 24.8446C4.2835 24.8446 3.5 24.0611 3.5 23.0946ZM9.33333 14.9279C9.33333 14.2836 9.85567 13.7612 10.5 13.7612H23.3333C23.9777 13.7612 24.5 14.2836 24.5 14.9279C24.5 15.5722 23.9777 16.0946 23.3333 16.0946H10.5C9.85567 16.0946 9.33333 15.5722 9.33333 14.9279ZM9.33333 23.0946C9.33333 22.4502 9.85567 21.9279 10.5 21.9279H23.3333C23.9777 21.9279 24.5 22.4502 24.5 23.0946C24.5 23.7389 23.9777 24.2612 23.3333 24.2612H10.5C9.85567 24.2612 9.33333 23.7389 9.33333 23.0946Z" fill="black"/>
</svg>
