<svg width="26" height="31" viewBox="0 0 26 31" fill="none" xmlns="http://www.w3.org/2000/svg">
<mask id="mask0_168_805" style="mask-type:alpha" maskUnits="userSpaceOnUse" x="0" y="0" width="26" height="31">
<rect y="0.117188" width="26" height="30.5628" fill="#D9D9D9"/>
</mask>
<g mask="url(#mask0_168_805)">
<path d="M7.04134 25.3748C5.39829 25.3748 3.99447 24.7094 2.82988 23.3787C1.6653 22.0479 1.08301 20.4215 1.08301 18.4993C1.08301 16.8517 1.50731 15.3837 2.35592 14.0952C3.20454 12.8067 4.31495 11.9829 5.68717 11.6238C5.99412 10.103 6.76148 8.65609 7.98926 7.2831C9.21704 5.91012 10.5261 5.22363 11.9163 5.22363C12.5122 5.22363 13.0222 5.47183 13.4465 5.96821C13.8709 6.4646 14.083 7.06132 14.083 7.75837V15.4259L15.8163 13.4615L17.333 15.2358L12.9997 20.3053L8.66634 15.2358L10.183 13.4615L11.9163 15.4259V7.75837C10.5441 8.05409 9.47884 8.83035 8.72051 10.0872C7.96217 11.344 7.58301 12.6377 7.58301 13.9685H7.04134C5.99412 13.9685 5.10037 14.4015 4.36009 15.2675C3.61981 16.1336 3.24967 17.1791 3.24967 18.4043C3.24967 19.6294 3.61981 20.675 4.36009 21.541C5.10037 22.407 5.99412 22.84 7.04134 22.84H20.0413C20.7997 22.84 21.4406 22.5338 21.9643 21.9212C22.4879 21.3086 22.7497 20.5588 22.7497 19.6716C22.7497 18.7845 22.4879 18.0346 21.9643 17.422C21.4406 16.8095 20.7997 16.5032 20.0413 16.5032H18.4163V13.9685C18.4163 12.9546 18.2177 12.0093 17.8205 11.1327C17.4233 10.2561 16.8997 9.51156 16.2497 8.899V5.95237C17.5858 6.69167 18.642 7.78477 19.4184 9.23168C20.1948 10.6786 20.583 12.2575 20.583 13.9685C21.8288 14.1374 22.8625 14.7659 23.684 15.8537C24.5056 16.9415 24.9163 18.2141 24.9163 19.6716C24.9163 21.2558 24.4424 22.6024 23.4945 23.7114C22.5465 24.8203 21.3955 25.3748 20.0413 25.3748H7.04134Z" fill="#F4F4F5"/>
</g>
</svg>
