<svg width="30" height="32" viewBox="0 0 30 32" fill="none" xmlns="http://www.w3.org/2000/svg">
<path d="M13.75 7.99993C15.475 7.99993 17.0375 8.74659 18.175 9.94659L15 13.3333H22.5V5.33326L19.9375 8.06659C19.1257 7.19875 18.1612 6.51053 17.0994 6.04146C16.0376 5.57239 14.8993 5.33172 13.75 5.33326C9.3375 5.33326 5.7125 8.81326 5.1 13.3333H7.625C7.91316 11.8274 8.68023 10.4741 9.79637 9.50218C10.9125 8.5303 12.3092 7.99961 13.75 7.99993ZM20.8 20.1866C21.6515 18.9547 22.2015 17.5157 22.4 15.9999H19.875C19.5868 17.5057 18.8198 18.8591 17.7036 19.831C16.5875 20.8029 15.1908 21.3336 13.75 21.3333C12.025 21.3333 10.4625 20.5866 9.325 19.3866L12.5 15.9999H5V23.9999L7.5625 21.2666C8.37425 22.1344 9.33875 22.8227 10.4006 23.2917C11.4624 23.7608 12.6007 24.0015 13.75 23.9999C15.6875 23.9999 17.5 23.3333 18.925 22.1866L25 28.6666L26.875 26.6666L20.8 20.1866Z" fill="black"/>
</svg>
