<svg width="28" height="28" viewBox="0 0 28 28" fill="none" xmlns="http://www.w3.org/2000/svg">
<path fill-rule="evenodd" clip-rule="evenodd" d="M10.4998 5.83341C10.4998 5.18908 11.0222 4.66675 11.6665 4.66675H22.1665C22.8108 4.66675 23.3332 5.18908 23.3332 5.83341C23.3332 6.47775 22.8108 7.00008 22.1665 7.00008H17.7742L12.6701 21.0001H16.3332C16.9775 21.0001 17.4998 21.5224 17.4998 22.1667C17.4998 22.8111 16.9775 23.3334 16.3332 23.3334H5.83317C5.18884 23.3334 4.6665 22.8111 4.6665 22.1667C4.6665 21.5224 5.18884 21.0001 5.83317 21.0001H10.2254L15.3296 7.00008H11.6665C11.0222 7.00008 10.4998 6.47775 10.4998 5.83341Z" fill="black"/>
</svg>
