<svg width="28" height="28" viewBox="0 0 28 28" fill="none" xmlns="http://www.w3.org/2000/svg">
<path d="M3.5 5.24992C3.5 4.60559 4.02233 4.08325 4.66667 4.08325H23.3333C23.9777 4.08325 24.5 4.60559 24.5 5.24992C24.5 5.89425 23.9777 6.41659 23.3333 6.41659H4.66667C4.02233 6.41659 3.5 5.89425 3.5 5.24992ZM3.5 22.7499C3.5 22.1056 4.02233 21.5833 4.66667 21.5833H23.3333C23.9777 21.5833 24.5 22.1056 24.5 22.7499C24.5 23.3943 23.9777 23.9166 23.3333 23.9166H4.66667C4.02233 23.9166 3.5 23.3943 3.5 22.7499ZM3.5 16.9166C3.5 16.2723 4.02233 15.7499 4.66667 15.7499H23.3333C23.9777 15.7499 24.5 16.2723 24.5 16.9166C24.5 17.5609 23.9777 18.0833 23.3333 18.0833H4.66667C4.02233 18.0833 3.5 17.5609 3.5 16.9166ZM3.5 11.0833C3.5 10.4389 4.02233 9.91658 4.66667 9.91658H23.3333C23.9777 9.91658 24.5 10.4389 24.5 11.0833C24.5 11.7276 23.9777 12.2499 23.3333 12.2499H4.66667C4.02233 12.2499 3.5 11.7276 3.5 11.0833Z" fill="black"/>
</svg>
