<svg width="28" height="28" viewBox="0 0 28 28" fill="none" xmlns="http://www.w3.org/2000/svg">
<path d="M17.517 21.0401C16.8728 21.0401 16.3505 20.5178 16.3505 19.8736C16.3505 19.2294 16.8728 18.7071 17.517 18.7071H18.6835C19.2964 18.7071 19.9032 18.5864 20.4694 18.3519C21.0356 18.1173 21.5501 17.7736 21.9834 17.3402C22.4168 16.9069 22.7605 16.3924 22.995 15.8262C23.2296 15.26 23.3503 14.6532 23.3503 14.0403C23.3503 13.4275 23.2296 12.8206 22.9951 12.2544C22.7605 11.6882 22.4168 11.1737 21.9834 10.7404C21.5501 10.307 21.0356 9.96329 20.4694 9.72876C19.9032 9.49424 19.2964 9.37353 18.6835 9.37353H17.517C16.8728 9.37353 16.3505 8.85127 16.3505 8.20704C16.3505 7.5628 16.8728 7.04055 17.517 7.04055L18.6835 7.04055C20.5301 7.05558 22.2959 7.79968 23.5964 9.11076C24.8968 10.4218 25.6265 12.1937 25.6265 14.0403C25.6265 15.887 24.8968 17.6588 23.5964 18.9699C22.2959 20.2809 20.5301 21.025 18.6835 21.0401H17.517ZM11.6829 19.8736C11.6829 20.5178 11.1607 21.0401 10.5164 21.0401H9.34993C8.42591 21.0476 7.50954 20.8721 6.65369 20.5237C5.79783 20.1753 5.01943 19.6609 4.36337 19.0102C3.70731 18.3594 3.18659 17.5852 2.83123 16.7323C2.47587 15.8793 2.29292 14.9644 2.29292 14.0403C2.29292 13.1163 2.47587 12.2014 2.83123 11.3484C3.18659 10.4954 3.70731 9.72119 4.36337 9.07045C5.01943 8.41972 5.79783 7.90531 6.65369 7.55692C7.50954 7.20852 8.42591 7.03302 9.34993 7.04055L10.5164 7.04055C11.1607 7.04055 11.6829 7.5628 11.6829 8.20704C11.6829 8.85127 11.1607 9.37353 10.5164 9.37353H9.34993C8.73707 9.37353 8.13023 9.49424 7.56402 9.72876C6.99782 9.96329 6.48336 10.307 6.05001 10.7404C5.61666 11.1737 5.2729 11.6882 5.03838 12.2544C4.80385 12.8206 4.68314 13.4275 4.68314 14.0403C4.68314 14.6532 4.80385 15.26 5.03838 15.8262C5.2729 16.3924 5.61666 16.9069 6.05001 17.3402C6.48336 17.7736 6.99782 18.1173 7.56402 18.3519C8.13023 18.5864 8.73707 18.7071 9.34993 18.7071H10.5164C11.1607 18.7071 11.6829 19.2294 11.6829 19.8736ZM18.6827 12.873C19.3274 12.873 19.85 13.3956 19.85 14.0403C19.85 14.685 19.3273 15.2076 18.6826 15.2075L9.35071 15.2069C8.70642 15.2068 8.18408 14.6846 8.18385 14.0404C8.18362 13.3957 8.70614 12.873 9.35079 12.873H18.6827Z" fill="#52525B"/>
</svg>
