<svg width="31" height="35" viewBox="0 0 31 35" fill="none" xmlns="http://www.w3.org/2000/svg">
<path d="M9.04167 21.748V28.9974C9.04167 29.7981 9.61997 30.4473 10.3333 30.4473H20.6667C21.38 30.4473 21.9583 29.7981 21.9583 28.9974V21.748M9.04167 21.748H21.9583M9.04167 21.748V24.6478H5.16667C4.4533 24.6478 3.875 23.9987 3.875 23.1979V11.599C3.875 10.7982 4.4533 10.1491 5.16667 10.1491H25.8333C26.5467 10.1491 27.125 10.7982 27.125 11.599V23.1979C27.125 23.9987 26.5467 24.6478 25.8333 24.6478H21.9583V21.748M10.3333 15.9486H9.04167M10.3333 4.34961H20.6667C21.38 4.34961 21.9583 4.99874 21.9583 5.79948V8.69922C21.9583 8.85631 21.9583 9.00757 21.9583 9.14924C21.9583 9.70152 21.5106 10.1491 20.9583 10.1491H10.0417C9.48938 10.1491 9.04167 9.70152 9.04167 9.14924C9.04167 9.00757 9.04167 8.85631 9.04167 8.69922V5.79948C9.04167 4.99874 9.61997 4.34961 10.3333 4.34961Z" stroke="black" stroke-width="2" stroke-linecap="round" stroke-linejoin="round"/>
</svg>
