<svg width="28" height="28" viewBox="0 0 28 28" fill="none" xmlns="http://www.w3.org/2000/svg">
<path d="M18.667 9.33334H14.0003C12.1438 9.33334 10.3633 10.0708 9.05058 11.3836C7.73782 12.6964 7.00033 14.4768 7.00033 16.3333C7.00033 18.1899 7.73782 19.9703 9.05058 21.2831C10.3633 22.5958 12.1438 23.3333 14.0003 23.3333H17.5003C18.1447 23.3333 18.667 23.8557 18.667 24.5C18.667 25.1443 18.1447 25.6667 17.5003 25.6667H14.0003C11.525 25.6667 9.151 24.6833 7.40066 22.933C5.65032 21.1827 4.66699 18.8087 4.66699 16.3333C4.66699 13.858 5.65032 11.484 7.40066 9.73368C9.151 7.98334 11.525 7.00001 14.0003 7.00001H18.667V3.72112C18.667 3.17003 19.3097 2.86897 19.7331 3.22178L25.0678 7.66733C25.3796 7.9272 25.3796 8.40615 25.0678 8.66602L19.7331 13.1116C19.3097 13.4644 18.667 13.1633 18.667 12.6122V9.33334Z" fill="black"/>
</svg>
