<svg width="33" height="38" viewBox="0 0 33 38" fill="none" xmlns="http://www.w3.org/2000/svg">
<path fill-rule="evenodd" clip-rule="evenodd" d="M2.0625 8.90625C2.0625 7.26592 3.2175 5.9375 4.64062 5.9375H28.3594C29.7825 5.9375 30.9375 7.2675 30.9375 8.90625V29.0938C30.9375 30.7325 29.7825 32.0625 28.3594 32.0625H4.64062C3.95686 32.0625 3.30111 31.7497 2.81762 31.193C2.33412 30.6362 2.0625 29.8811 2.0625 29.0938V8.90625ZM28.875 14.8438C28.875 14.6863 28.8207 14.5353 28.724 14.4239C28.6273 14.3126 28.4961 14.25 28.3594 14.25H18.0469C17.9101 14.25 17.779 14.3126 17.6823 14.4239C17.5856 14.5353 17.5312 14.6863 17.5312 14.8438V17.2188C17.5312 17.5465 17.7622 17.8125 18.0469 17.8125H28.3594C28.4961 17.8125 28.6273 17.7499 28.724 17.6386C28.8207 17.5272 28.875 17.3762 28.875 17.2188V14.8438ZM28.875 20.7812C28.875 20.6238 28.8207 20.4728 28.724 20.3614C28.6273 20.2501 28.4961 20.1875 28.3594 20.1875H18.0469C17.9101 20.1875 17.779 20.2501 17.6823 20.3614C17.5856 20.4728 17.5312 20.6238 17.5312 20.7812V23.1562C17.5312 23.484 17.7622 23.75 18.0469 23.75H28.3594C28.4961 23.75 28.6273 23.6874 28.724 23.5761C28.8207 23.4647 28.875 23.3137 28.875 23.1562V20.7812ZM28.875 26.7188C28.875 26.5613 28.8207 26.4103 28.724 26.2989C28.6273 26.1876 28.4961 26.125 28.3594 26.125H18.0469C17.9101 26.125 17.779 26.1876 17.6823 26.2989C17.5856 26.4103 17.5312 26.5613 17.5312 26.7188V29.0938C17.5312 29.4215 17.7622 29.6875 18.0469 29.6875H28.3594C28.4961 29.6875 28.6273 29.6249 28.724 29.5136C28.8207 29.4022 28.875 29.2512 28.875 29.0938V26.7188ZM14.9531 29.6875C15.0899 29.6875 15.221 29.6249 15.3177 29.5136C15.4144 29.4022 15.4688 29.2512 15.4688 29.0938V26.7188C15.4688 26.5613 15.4144 26.4103 15.3177 26.2989C15.221 26.1876 15.0899 26.125 14.9531 26.125H4.64062C4.50387 26.125 4.37272 26.1876 4.27602 26.2989C4.17932 26.4103 4.125 26.5613 4.125 26.7188V29.0938C4.125 29.4215 4.356 29.6875 4.64062 29.6875H14.9531ZM4.64062 23.75H14.9531C15.0899 23.75 15.221 23.6874 15.3177 23.5761C15.4144 23.4647 15.4688 23.3137 15.4688 23.1562V20.7812C15.4688 20.6238 15.4144 20.4728 15.3177 20.3614C15.221 20.2501 15.0899 20.1875 14.9531 20.1875H4.64062C4.50387 20.1875 4.37272 20.2501 4.27602 20.3614C4.17932 20.4728 4.125 20.6238 4.125 20.7812V23.1562C4.125 23.484 4.356 23.75 4.64062 23.75ZM4.64062 17.8125H14.9531C15.0899 17.8125 15.221 17.7499 15.3177 17.6386C15.4144 17.5272 15.4688 17.3762 15.4688 17.2188V14.8438C15.4688 14.6863 15.4144 14.5353 15.3177 14.4239C15.221 14.3126 15.0899 14.25 14.9531 14.25H4.64062C4.50387 14.25 4.37272 14.3126 4.27602 14.4239C4.17932 14.5353 4.125 14.6863 4.125 14.8438V17.2188C4.125 17.5465 4.356 17.8125 4.64062 17.8125Z" fill="black"/>
</svg>
