<svg width="45" height="46" viewBox="0 0 45 46" fill="none" xmlns="http://www.w3.org/2000/svg">
<mask id="mask0_111_664" style="mask-type:alpha" maskUnits="userSpaceOnUse" x="0" y="0" width="45" height="46">
<rect width="45" height="46" fill="#D9D9D9"/>
</mask>
<g mask="url(#mask0_111_664)">
<path d="M22.5 33.5417L25.3125 30.6667H30V25.8751L32.8125 23.0001L30 20.1251V15.3334H25.3125L22.5 12.4584L19.6875 15.3334H15V20.1251L12.1875 23.0001L15 25.8751V30.6667H19.6875L22.5 33.5417ZM22.5 28.7501V17.2501C24.0625 17.2501 25.3906 17.8091 26.4844 18.9272C27.5781 20.0452 28.125 21.4029 28.125 23.0001C28.125 24.5973 27.5781 25.9549 26.4844 27.073C25.3906 28.1911 24.0625 28.7501 22.5 28.7501ZM7.5 38.3334C6.46875 38.3334 5.58594 37.9581 4.85156 37.2074C4.11719 36.4567 3.75 35.5542 3.75 34.5001V11.5001C3.75 10.4459 4.11719 9.54348 4.85156 8.79279C5.58594 8.0421 6.46875 7.66675 7.5 7.66675H37.5C38.5312 7.66675 39.4141 8.0421 40.1484 8.79279C40.8828 9.54348 41.25 10.4459 41.25 11.5001V34.5001C41.25 35.5542 40.8828 36.4567 40.1484 37.2074C39.4141 37.9581 38.5312 38.3334 37.5 38.3334H7.5ZM7.5 34.5001H37.5V11.5001H7.5V34.5001Z" fill="#3ABEF9"/>
</g>
</svg>
