<svg width="28" height="28" viewBox="0 0 28 28" fill="none" xmlns="http://www.w3.org/2000/svg">
<path d="M9.33301 9.33334V12.6122C9.33301 13.1633 8.69025 13.4644 8.26689 13.1116L2.93222 8.66602C2.62038 8.40615 2.62038 7.9272 2.93222 7.66733L8.26689 3.22178C8.69025 2.86897 9.33301 3.17003 9.33301 3.72112V7.00001H13.9997C16.475 7.00001 18.849 7.98334 20.5993 9.73368C22.3497 11.484 23.333 13.858 23.333 16.3333C23.333 18.8087 22.3497 21.1827 20.5993 22.933C18.849 24.6833 16.475 25.6667 13.9997 25.6667H10.333C9.78072 25.6667 9.33301 25.219 9.33301 24.6667V24.3333C9.33301 23.7811 9.78072 23.3333 10.333 23.3333H13.9997C15.8562 23.3333 17.6367 22.5958 18.9494 21.2831C20.2622 19.9703 20.9997 18.1899 20.9997 16.3333C20.9997 14.4768 20.2622 12.6964 18.9494 11.3836C17.6367 10.0708 15.8562 9.33334 13.9997 9.33334H9.33301Z" fill="black"/>
</svg>
