<svg width="32" height="31" viewBox="0 0 32 31" fill="none" xmlns="http://www.w3.org/2000/svg">
<mask id="mask0_170_811" style="mask-type:alpha" maskUnits="userSpaceOnUse" x="0" y="0" width="32" height="31">
<rect width="32" height="31" fill="#D9D9D9"/>
</mask>
<g mask="url(#mask0_170_811)">
<path d="M14.6673 24.5416H17.334V19.1489L19.4673 21.2155L21.334 19.3749L16.0007 14.2083L10.6673 19.3749L12.5673 21.1833L14.6673 19.1489V24.5416ZM8.00065 28.4166C7.26732 28.4166 6.63954 28.1636 6.11732 27.6577C5.5951 27.1518 5.33398 26.5437 5.33398 25.8333V5.16659C5.33398 4.45617 5.5951 3.84801 6.11732 3.34211C6.63954 2.8362 7.26732 2.58325 8.00065 2.58325H18.6673L26.6673 10.3333V25.8333C26.6673 26.5437 26.4062 27.1518 25.884 27.6577C25.3618 28.1636 24.734 28.4166 24.0007 28.4166H8.00065ZM17.334 11.6249V5.16659H8.00065V25.8333H24.0007V11.6249H17.334Z" fill="#1C1B1F"/>
</g>
</svg>
