<svg width="26" height="26" viewBox="0 0 26 26" fill="none" xmlns="http://www.w3.org/2000/svg">
<path d="M6.30926 3.93455L12.9999 10.6252L19.6559 3.96922C19.8029 3.81273 19.9801 3.68754 20.1766 3.60117C20.3732 3.51479 20.5852 3.469 20.7999 3.46655C21.2596 3.46655 21.7005 3.64917 22.0256 3.97423C22.3506 4.2993 22.5333 4.74018 22.5333 5.19989C22.5373 5.4124 22.4979 5.62349 22.4174 5.82021C22.3369 6.01694 22.2171 6.19514 22.0653 6.34389L15.3226 12.9999L22.0653 19.7426C22.3509 20.022 22.5185 20.4005 22.5333 20.7999C22.5333 21.2596 22.3506 21.7005 22.0256 22.0255C21.7005 22.3506 21.2596 22.5332 20.7999 22.5332C20.579 22.5424 20.3586 22.5055 20.1527 22.4249C19.9468 22.3444 19.7599 22.2219 19.6039 22.0652L12.9999 15.3746L6.32659 22.0479C6.18013 22.1992 6.00517 22.3199 5.81179 22.4032C5.61842 22.4865 5.41046 22.5307 5.19992 22.5332C4.74022 22.5332 4.29934 22.3506 3.97427 22.0255C3.64921 21.7005 3.46659 21.2596 3.46659 20.7999C3.46255 20.5874 3.50198 20.3763 3.58246 20.1796C3.66293 19.9828 3.78276 19.8046 3.93459 19.6559L10.6773 12.9999L3.93459 6.25722C3.64891 5.97773 3.48139 5.59927 3.46659 5.19989C3.46659 4.74018 3.64921 4.2993 3.97427 3.97423C4.29934 3.64917 4.74022 3.46655 5.19992 3.46655C5.61592 3.47175 6.01459 3.63989 6.30926 3.93455Z" fill="black"/>
</svg>
